<svg role="img" aria-label="Casa Cava" xmlns="http://www.w3.org/2000/svg" viewBox="693 459 1698 2058"><path d="M1915.32,2447.51l-88.78.14-16.46,38.73-44.69.16,82.74-187.71,45.28-.3,83.66,187.25-44.8,1.05-16.96-39.32ZM1900.39,2412.87l-29.79-70.93-29.68,71.45,59.46-.52Z" fill="#a06e4e" stroke="#a06e4e" stroke-miterlimit="10"/><path d="M2301.85,2447.69l-88.64-.15-16.94,38.78-43.97-.81,82.87-187.08,44.98-.04,83.46,187.29-45.33.71-16.42-38.72ZM2287.28,2412.9l-30.07-70.74-30.31,71.27,60.38-.53Z" fill="#a06e4e" stroke="#a06e4e" stroke-miterlimit="10"/><path d="M1050.84,2447.41l-88.65.3-16.02,38.44c-14.09.66-29.42.55-44.58-.35l83.04-188.14,44.32.68,83.66,187.01-44.49,1.41-17.28-39.35ZM1035.95,2412.99l-29.56-70.65-30.41,71.2,59.96-.56Z" fill="#a06e4e" stroke="#a06e4e" stroke-miterlimit="10"/><path d="M1433.95,2447.89l-88.26-.56-17.42,39.31-43.78-1.13,82.85-187.27,45.04.28,83,187.28-44.73.57-16.7-38.48ZM1419.24,2413.09l-29.61-70.58-30.12,71.13,59.73-.55Z" fill="#a06e4e" stroke="#a06e4e" stroke-miterlimit="10"/><path d="M1245.17,2480.76c-40.72,15.91-85.89,10.46-124.87-11.39l14.32-34.32c22.88,15.75,83.28,30.66,97.02,7.46,2.62-4.42.9-18.66-4.3-20.71-37.27-14.72-72.99-14.46-92.9-36.34-12.16-13.37-13.64-31.26-7.84-50.08,14.4-46.76,101.83-49.59,142.51-24.14l-13.77,33.98c-24.1-16.25-84.46-23.68-88.32,3.42-.85,5.98,5.73,16.13,12.58,18.02l58.96,16.28c22.29,6.15,37.94,22.78,39.53,43.51,1.71,22.27-8.89,44.93-32.92,54.32Z" fill="#a06e4e" stroke="#a06e4e" stroke-miterlimit="10"/><path d="M787.78,2441.79c27.25,18.28,61.98,13.93,82.5-12.22l28.72,25.65c-20.5,27.84-52.05,35.82-84.72,34.29-54.43-2.55-95.05-43.54-95.53-96.49-.48-53.89,41.7-96.23,97.13-97.92,32.09-.98,61.01,7.77,82.12,33.6l-26.99,26.35c-21.46-22.97-53.12-29.93-80.01-14.69-17.56,9.95-26.66,29.71-27.69,47.45-1.17,20.19,5.95,41.54,24.48,53.97Z" fill="#a06e4e" stroke="#a06e4e" stroke-miterlimit="10"/><path d="M1643.33,2350.3c-24.09,25.54-20.27,65.47,2.52,86.3,25.69,23.48,65.91,21.81,88.37-6.65,10.7,7.91,20.2,16.65,28.57,26.5-22.17,27.37-52.82,34.88-85.08,33.13-53.99-2.94-94.41-43.82-94.79-96.49-.38-52.15,40.06-94.49,93.72-97.78,33.47-2.05,63.65,6.52,85.34,33.46l-27.06,26.03c-25.68-27.29-66.38-31.19-91.56-4.5Z" fill="#a06e4e" stroke="#a06e4e" stroke-miterlimit="10"/><polygon points="2124.39 2298.57 2168.05 2298.61 2085.92 2486.83 2043.03 2486.24 1962.57 2298.64 2009.57 2298.47 2066.17 2431.88 2124.39 2298.57" fill="#a06e4e" stroke="#a06e4e" stroke-miterlimit="10"/><path d="M2000.36,1796.95c19.29,13.32,33.4,28.79,48.97,45.87-228.5,280.65-674.42,261.05-902.58-12.6-69.38-83.21-110.72-186.62-116.9-295.39-6.07-106.87,31.74-221.64,93.43-307.74,47.57-66.38,108.64-120.24,182.06-160.46-8.44,36-24.67,66.89-44.94,96.28l-66.35,96.2c-40.2,58.29-61.77,125.58-70.12,196.35-18.08,153.38,59.81,309.37,182.17,399.03,205.85,150.84,515.99,142.04,694.26-57.54Z" fill="#a06e4e" stroke="#a06e4e" stroke-miterlimit="10"/><path d="M1532.32,1703.51c-12.55-7.71-20.58-18.55-30.62-30.08-68.97-79.22-86.43-185.53-51.91-284.82,17.11-49.21,41.94-92.02,71.17-135.54l49.45-73.62c119.07-177.26,5.35-259.39-48.38-398.17-43.05-111.21-3.91-229.83,95.26-296.43-49.94,101.36-69.09,170.41-15.76,274.98l66.16,106.09c11.87,19.04,20.16,38.64,28.48,59.31,30.71,76.38,29.61,158.42-5.84,233.64-67.38,142.94-204.39,229.88-192.18,405.48,2.06,29.59,4.59,58.55,14.01,86.58l20.17,52.59Z" fill="#a06e4e" stroke="#a06e4e" stroke-miterlimit="10"/><path d="M1668.78,1887.31c-109.7,8.93-194.3-11.99-282.51-73.63-52.55-36.72-92.35-83.07-122.25-138.76-49.27-91.74-58.24-194.23-25.24-293.4,16.95-50.93,41.39-96.38,66.01-144.1l46.73-90.54c17.01-32.95,25.88-69.25,28.63-106.7,5.41-73.76-24-141.7-69.16-198.1l-23.6-29.48c141.25,56.37,202.22,203.92,157.63,346.18-40.18,128.19-162.08,251.32-129.07,407.71,25.99,123.1,111.08,224.7,223.59,278.82,42.73,19.9,84.06,32.05,129.24,42.01Z" fill="#a06e4e" stroke="#a06e4e" stroke-miterlimit="10"/><path d="M1929.86,1244.56c-49.04,75.15-103.1,107.24-109.36,215.81-14.17-16.97-21.8-36.76-26.18-57.99-18.71-90.8,30.9-138.19,64.66-216.33,30.08-69.64-12.25-131.08-47.51-193.38-45.1-79.69-34.12-177.25,36.37-238,.17,11.62-1.82,20.93-4.18,31.77-9.87,45.29-5.71,92.16,20.31,130.82l55.24,82.07c51.05,75.85,62.91,165.13,10.64,245.23Z" fill="#a06e4e" stroke="#a06e4e" stroke-miterlimit="10"/></svg>